M48
;DRILL file {KiCad 4.0.5+dfsg1-4} date Thu Dec 28 22:42:19 2017
;FORMAT={-:-/ absolute / inch / decimal}
FMAT,2
INCH,TZ
T1C0.016
T2C0.040
%
G90
G05
M72
T1
X2.9599Y-4.0624
X3.1113Y-3.3231
X3.15Y-3.2328
X3.2068Y-4.0512
X3.2314Y-4.1537
X3.2513Y-3.8304
X3.2717Y-2.048
X3.2937Y-4.3159
X3.3183Y-4.6419
X3.3188Y-3.7172
X3.3409Y-2.9597
X3.3675Y-2.9875
X3.3977Y-3.6513
X3.5032Y-2.4793
T2
X2.75Y-3.5
X2.75Y-3.6
X2.75Y-3.7
X2.75Y-3.8
X2.75Y-3.9
X2.75Y-4.
X2.75Y-4.1
X2.75Y-4.2
X2.75Y-4.3
X2.75Y-4.4
X2.75Y-4.5
X2.75Y-4.6
X2.75Y-4.7
X2.75Y-4.8
X2.75Y-4.9
X2.75Y-5.
X3.05Y-1.2
X3.05Y-1.3
X3.05Y-1.4
X3.05Y-1.5
X3.05Y-1.6
X3.05Y-1.7
X3.05Y-1.8
X3.05Y-1.9
X3.05Y-2.
X3.05Y-2.1
X3.05Y-2.2
X3.05Y-2.3
X3.05Y-2.4
X3.05Y-2.5
X3.05Y-2.6
X3.05Y-2.7
X3.05Y-2.8
X3.05Y-2.9
X3.05Y-3.
X3.05Y-3.1
X3.05Y-3.8
X3.15Y-1.2
X3.15Y-1.3
X3.15Y-1.4
X3.15Y-1.5
X3.15Y-1.6
X3.15Y-1.7
X3.15Y-1.8
X3.15Y-1.9
X3.15Y-2.
X3.15Y-2.1
X3.15Y-2.2
X3.15Y-2.3
X3.15Y-2.4
X3.15Y-2.5
X3.15Y-2.6
X3.15Y-2.7
X3.15Y-2.8
X3.15Y-2.9
X3.15Y-3.
X3.15Y-3.1
X3.15Y-3.8
X3.15Y-3.95
X3.45Y-3.5
X3.45Y-3.6
X3.45Y-3.7
X3.45Y-3.8
X3.45Y-3.9
X3.45Y-4.
X3.45Y-4.1
X3.45Y-4.2
X3.45Y-4.3
X3.45Y-4.4
X3.45Y-4.5
X3.45Y-4.6
X3.45Y-4.7
X3.45Y-4.8
X3.45Y-4.9
X3.45Y-5.
T0
M30
