G04 #@! TF.FileFunction,Copper,L2,Bot,Signal*
%FSLAX46Y46*%
G04 Gerber Fmt 4.6, Leading zero omitted, Abs format (unit mm)*
G04 Created by KiCad (PCBNEW 4.0.5+dfsg1-4) date Thu Dec 28 22:42:14 2017*
%MOMM*%
%LPD*%
G01*
G04 APERTURE LIST*
%ADD10C,0.100000*%
%ADD11R,2.032000X1.727200*%
%ADD12O,2.032000X1.727200*%
%ADD13R,2.032000X2.032000*%
%ADD14O,2.032000X2.032000*%
%ADD15R,2.235200X2.235200*%
%ADD16C,0.600000*%
%ADD17C,0.250000*%
G04 APERTURE END LIST*
D10*
D11*
X69850000Y-88900000D03*
D12*
X69850000Y-91440000D03*
X69850000Y-93980000D03*
X69850000Y-96520000D03*
X69850000Y-99060000D03*
X69850000Y-101600000D03*
X69850000Y-104140000D03*
X69850000Y-106680000D03*
X69850000Y-109220000D03*
X69850000Y-111760000D03*
X69850000Y-114300000D03*
X69850000Y-116840000D03*
X69850000Y-119380000D03*
X69850000Y-121920000D03*
X69850000Y-124460000D03*
X69850000Y-127000000D03*
D11*
X87630000Y-88900000D03*
D12*
X87630000Y-91440000D03*
X87630000Y-93980000D03*
X87630000Y-96520000D03*
X87630000Y-99060000D03*
X87630000Y-101600000D03*
X87630000Y-104140000D03*
X87630000Y-106680000D03*
X87630000Y-109220000D03*
X87630000Y-111760000D03*
X87630000Y-114300000D03*
X87630000Y-116840000D03*
X87630000Y-119380000D03*
X87630000Y-121920000D03*
X87630000Y-124460000D03*
X87630000Y-127000000D03*
D13*
X80010000Y-96520000D03*
D14*
X77470000Y-96520000D03*
D11*
X80010000Y-78740000D03*
D12*
X80010000Y-76200000D03*
X80010000Y-73660000D03*
X80010000Y-71120000D03*
X80010000Y-68580000D03*
X80010000Y-66040000D03*
X80010000Y-63500000D03*
X80010000Y-60960000D03*
X80010000Y-58420000D03*
X80010000Y-55880000D03*
X80010000Y-53340000D03*
X80010000Y-50800000D03*
X80010000Y-48260000D03*
X80010000Y-45720000D03*
X80010000Y-43180000D03*
X80010000Y-40640000D03*
X80010000Y-38100000D03*
X80010000Y-35560000D03*
X80010000Y-33020000D03*
X80010000Y-30480000D03*
D11*
X77470000Y-78740000D03*
D12*
X77470000Y-76200000D03*
X77470000Y-73660000D03*
X77470000Y-71120000D03*
X77470000Y-68580000D03*
X77470000Y-66040000D03*
X77470000Y-63500000D03*
X77470000Y-60960000D03*
X77470000Y-58420000D03*
X77470000Y-55880000D03*
X77470000Y-53340000D03*
X77470000Y-50800000D03*
X77470000Y-48260000D03*
X77470000Y-45720000D03*
X77470000Y-43180000D03*
X77470000Y-40640000D03*
X77470000Y-38100000D03*
X77470000Y-35560000D03*
X77470000Y-33020000D03*
X77470000Y-30480000D03*
D15*
X80010000Y-100330000D03*
D16*
X86302400Y-92743600D03*
X75180200Y-103184700D03*
X88981000Y-62974100D03*
X83658800Y-109623700D03*
X80010000Y-82111900D03*
X84858300Y-75176100D03*
X85534700Y-75882600D03*
X79026300Y-84407500D03*
X81453000Y-102901200D03*
X82078400Y-105503300D03*
X82583100Y-97293300D03*
X83101300Y-52020100D03*
X84296700Y-94417500D03*
X84284100Y-117905300D03*
D17*
X77470000Y-78740000D02*
X77470000Y-79928900D01*
X77470000Y-83911200D02*
X86302400Y-92743600D01*
X77470000Y-79928900D02*
X77470000Y-83911200D01*
X69850000Y-109220000D02*
X69850000Y-108031100D01*
X70333800Y-108031100D02*
X75180200Y-103184700D01*
X69850000Y-108031100D02*
X70333800Y-108031100D01*
X77470000Y-73660000D02*
X77470000Y-74848900D01*
X87630000Y-104140000D02*
X87630000Y-102951100D01*
X76949900Y-74848900D02*
X77470000Y-74848900D01*
X76128700Y-75670100D02*
X76949900Y-74848900D01*
X76128700Y-83454300D02*
X76128700Y-75670100D01*
X86272900Y-93598500D02*
X76128700Y-83454300D01*
X86272900Y-94502600D02*
X86272900Y-93598500D01*
X87020300Y-95250000D02*
X86272900Y-94502600D01*
X88210500Y-95250000D02*
X87020300Y-95250000D01*
X88981000Y-96020500D02*
X88210500Y-95250000D01*
X88981000Y-102083900D02*
X88981000Y-96020500D01*
X88113800Y-102951100D02*
X88981000Y-102083900D01*
X87630000Y-102951100D02*
X88113800Y-102951100D01*
X77470000Y-71120000D02*
X77470000Y-72308900D01*
X87630000Y-99060000D02*
X87630000Y-97871100D01*
X76949900Y-72308900D02*
X77470000Y-72308900D01*
X75678200Y-73580600D02*
X76949900Y-72308900D01*
X75678200Y-84277700D02*
X75678200Y-73580600D01*
X85822600Y-94422100D02*
X75678200Y-84277700D01*
X85822600Y-96547500D02*
X85822600Y-94422100D01*
X87146200Y-97871100D02*
X85822600Y-96547500D01*
X87630000Y-97871100D02*
X87146200Y-97871100D01*
X69850000Y-114300000D02*
X69850000Y-113111100D01*
X69366200Y-113111100D02*
X69850000Y-113111100D01*
X68499000Y-112243900D02*
X69366200Y-113111100D01*
X68499000Y-106160000D02*
X68499000Y-112243900D01*
X69249000Y-105410000D02*
X68499000Y-106160000D01*
X70483100Y-105410000D02*
X69249000Y-105410000D01*
X74474600Y-101418500D02*
X70483100Y-105410000D01*
X74474600Y-71575400D02*
X74474600Y-101418500D01*
X77470000Y-68580000D02*
X74474600Y-71575400D01*
X80562100Y-67228900D02*
X77470000Y-67228900D01*
X88971400Y-75638200D02*
X80562100Y-67228900D01*
X88971400Y-89950000D02*
X88971400Y-75638200D01*
X88670300Y-90251100D02*
X88971400Y-89950000D01*
X87630000Y-90251100D02*
X88670300Y-90251100D01*
X87630000Y-91440000D02*
X87630000Y-90251100D01*
X77470000Y-66040000D02*
X77470000Y-67228900D01*
X69850000Y-96520000D02*
X69850000Y-95331100D01*
X70333800Y-95331100D02*
X69850000Y-95331100D01*
X72950700Y-92714200D02*
X70333800Y-95331100D01*
X72950700Y-68019300D02*
X72950700Y-92714200D01*
X77470000Y-63500000D02*
X72950700Y-68019300D01*
X70902900Y-90251100D02*
X69850000Y-90251100D01*
X71201000Y-89953000D02*
X70902900Y-90251100D01*
X71201000Y-67229000D02*
X71201000Y-89953000D01*
X77470000Y-60960000D02*
X71201000Y-67229000D01*
X69850000Y-91440000D02*
X69850000Y-90251100D01*
X77470000Y-55880000D02*
X77470000Y-57068900D01*
X69850000Y-124460000D02*
X69850000Y-123271100D01*
X76949900Y-57068900D02*
X77470000Y-57068900D01*
X67578400Y-66440400D02*
X76949900Y-57068900D01*
X67578400Y-121483300D02*
X67578400Y-66440400D01*
X69366200Y-123271100D02*
X67578400Y-121483300D01*
X69850000Y-123271100D02*
X69366200Y-123271100D01*
X77470000Y-53340000D02*
X77470000Y-54528900D01*
X80535800Y-54528900D02*
X88981000Y-62974100D01*
X77470000Y-54528900D02*
X80535800Y-54528900D01*
X87630000Y-114300000D02*
X87630000Y-113111100D01*
X87146200Y-113111100D02*
X87630000Y-113111100D01*
X83658800Y-109623700D02*
X87146200Y-113111100D01*
X88113800Y-118191100D02*
X87630000Y-118191100D01*
X90789400Y-115515500D02*
X88113800Y-118191100D01*
X90789400Y-54622400D02*
X90789400Y-115515500D01*
X80535900Y-44368900D02*
X90789400Y-54622400D01*
X77470000Y-44368900D02*
X80535900Y-44368900D01*
X77470000Y-43180000D02*
X77470000Y-44368900D01*
X87630000Y-119380000D02*
X87630000Y-118191100D01*
X76986200Y-39288900D02*
X77470000Y-39288900D01*
X76119000Y-40156100D02*
X76986200Y-39288900D01*
X76119000Y-51354900D02*
X76119000Y-40156100D01*
X76834100Y-52070000D02*
X76119000Y-51354900D01*
X80644100Y-52070000D02*
X76834100Y-52070000D01*
X89888600Y-61314500D02*
X80644100Y-52070000D01*
X89888600Y-103765400D02*
X89888600Y-61314500D01*
X88304100Y-105349900D02*
X89888600Y-103765400D01*
X86472800Y-105349900D02*
X88304100Y-105349900D01*
X81452900Y-100330000D02*
X86472800Y-105349900D01*
X80010000Y-100330000D02*
X81452900Y-100330000D01*
X77470000Y-38100000D02*
X77470000Y-38694400D01*
X77470000Y-38694400D02*
X77470000Y-39288900D01*
X78074300Y-38694400D02*
X78668700Y-38100000D01*
X77470000Y-38694400D02*
X78074300Y-38694400D01*
X80010000Y-38100000D02*
X78668700Y-38100000D01*
X84858300Y-77263600D02*
X80010000Y-82111900D01*
X84858300Y-75176100D02*
X84858300Y-77263600D01*
X77470000Y-33020000D02*
X80010000Y-33020000D01*
X85534700Y-77899100D02*
X79026300Y-84407500D01*
X85534700Y-75882600D02*
X85534700Y-77899100D01*
X87630000Y-109220000D02*
X87630000Y-108031100D01*
X86582900Y-108031100D02*
X81453000Y-102901200D01*
X87630000Y-108031100D02*
X86582900Y-108031100D01*
X87630000Y-111760000D02*
X87630000Y-110571100D01*
X87146200Y-110571100D02*
X82078400Y-105503300D01*
X87630000Y-110571100D02*
X87146200Y-110571100D01*
X69850000Y-111760000D02*
X69850000Y-110571100D01*
X81211100Y-98665300D02*
X82583100Y-97293300D01*
X78971700Y-98665300D02*
X81211100Y-98665300D01*
X76630400Y-101006600D02*
X78971700Y-98665300D01*
X76630400Y-104274500D02*
X76630400Y-101006600D01*
X70333800Y-110571100D02*
X76630400Y-104274500D01*
X69850000Y-110571100D02*
X70333800Y-110571100D01*
X80010000Y-71120000D02*
X80010000Y-69931100D01*
X87630000Y-101600000D02*
X87630000Y-100411100D01*
X76819200Y-69931100D02*
X80010000Y-69931100D01*
X75223800Y-71526500D02*
X76819200Y-69931100D01*
X75223800Y-84460200D02*
X75223800Y-71526500D01*
X85147300Y-94383700D02*
X75223800Y-84460200D01*
X85147300Y-98448500D02*
X85147300Y-94383700D01*
X87109900Y-100411100D02*
X85147300Y-98448500D01*
X87630000Y-100411100D02*
X87109900Y-100411100D01*
X87630000Y-76200000D02*
X80010000Y-68580000D01*
X87630000Y-88900000D02*
X87630000Y-76200000D01*
X69366200Y-115651100D02*
X69850000Y-115651100D01*
X68028800Y-114313700D02*
X69366200Y-115651100D01*
X68028800Y-98990800D02*
X68028800Y-114313700D01*
X69229600Y-97790000D02*
X68028800Y-98990800D01*
X70431400Y-97790000D02*
X69229600Y-97790000D01*
X74024200Y-94197200D02*
X70431400Y-97790000D01*
X74024200Y-67582700D02*
X74024200Y-94197200D01*
X76772200Y-64834700D02*
X74024200Y-67582700D01*
X78804700Y-64834700D02*
X76772200Y-64834700D01*
X80010000Y-66040000D02*
X78804700Y-64834700D01*
X69850000Y-116840000D02*
X69850000Y-115651100D01*
X87630000Y-93980000D02*
X87630000Y-92791100D01*
X80010000Y-63500000D02*
X80010000Y-64688900D01*
X88150100Y-92791100D02*
X87630000Y-92791100D01*
X89421700Y-91519500D02*
X88150100Y-92791100D01*
X89421700Y-73616800D02*
X89421700Y-91519500D01*
X80493800Y-64688900D02*
X89421700Y-73616800D01*
X80010000Y-64688900D02*
X80493800Y-64688900D01*
X80010000Y-60960000D02*
X80010000Y-62148900D01*
X69850000Y-93980000D02*
X69850000Y-92791100D01*
X76944100Y-62148900D02*
X80010000Y-62148900D01*
X72500300Y-66592700D02*
X76944100Y-62148900D01*
X72500300Y-90624600D02*
X72500300Y-66592700D01*
X70333800Y-92791100D02*
X72500300Y-90624600D01*
X69850000Y-92791100D02*
X70333800Y-92791100D01*
X80010000Y-58420000D02*
X80010000Y-59608900D01*
X76944100Y-59608900D02*
X80010000Y-59608900D01*
X69850000Y-66703000D02*
X76944100Y-59608900D01*
X69850000Y-88900000D02*
X69850000Y-66703000D01*
X78491900Y-98038100D02*
X69850000Y-106680000D01*
X81070100Y-98038100D02*
X78491900Y-98038100D01*
X81378100Y-97730100D02*
X81070100Y-98038100D01*
X81378100Y-97336100D02*
X81378100Y-97730100D01*
X84296700Y-94417500D02*
X81378100Y-97336100D01*
X80010000Y-48260000D02*
X80010000Y-49448900D01*
X80530100Y-49448900D02*
X83101300Y-52020100D01*
X80010000Y-49448900D02*
X80530100Y-49448900D01*
X87630000Y-116840000D02*
X87630000Y-115651100D01*
X80010000Y-45720000D02*
X80010000Y-46908900D01*
X88150100Y-115651100D02*
X87630000Y-115651100D01*
X90339000Y-113462200D02*
X88150100Y-115651100D01*
X90339000Y-56754100D02*
X90339000Y-113462200D01*
X80493800Y-46908900D02*
X90339000Y-56754100D01*
X80010000Y-46908900D02*
X80493800Y-46908900D01*
X87630000Y-121920000D02*
X87630000Y-120731100D01*
X87109900Y-120731100D02*
X84284100Y-117905300D01*
X87630000Y-120731100D02*
X87109900Y-120731100D01*
M02*
