G04 #@! TF.FileFunction,Copper,L1,Top,Signal*
%FSLAX46Y46*%
G04 Gerber Fmt 4.6, Leading zero omitted, Abs format (unit mm)*
G04 Created by KiCad (PCBNEW 4.0.5+dfsg1-4) date Thu Dec 28 22:42:14 2017*
%MOMM*%
%LPD*%
G01*
G04 APERTURE LIST*
%ADD10C,0.100000*%
%ADD11R,2.032000X1.727200*%
%ADD12O,2.032000X1.727200*%
%ADD13R,2.032000X2.032000*%
%ADD14O,2.032000X2.032000*%
%ADD15R,2.235200X2.235200*%
%ADD16C,0.600000*%
%ADD17C,0.250000*%
%ADD18C,0.254000*%
G04 APERTURE END LIST*
D10*
D11*
X69850000Y-88900000D03*
D12*
X69850000Y-91440000D03*
X69850000Y-93980000D03*
X69850000Y-96520000D03*
X69850000Y-99060000D03*
X69850000Y-101600000D03*
X69850000Y-104140000D03*
X69850000Y-106680000D03*
X69850000Y-109220000D03*
X69850000Y-111760000D03*
X69850000Y-114300000D03*
X69850000Y-116840000D03*
X69850000Y-119380000D03*
X69850000Y-121920000D03*
X69850000Y-124460000D03*
X69850000Y-127000000D03*
D11*
X87630000Y-88900000D03*
D12*
X87630000Y-91440000D03*
X87630000Y-93980000D03*
X87630000Y-96520000D03*
X87630000Y-99060000D03*
X87630000Y-101600000D03*
X87630000Y-104140000D03*
X87630000Y-106680000D03*
X87630000Y-109220000D03*
X87630000Y-111760000D03*
X87630000Y-114300000D03*
X87630000Y-116840000D03*
X87630000Y-119380000D03*
X87630000Y-121920000D03*
X87630000Y-124460000D03*
X87630000Y-127000000D03*
D13*
X80010000Y-96520000D03*
D14*
X77470000Y-96520000D03*
D11*
X80010000Y-78740000D03*
D12*
X80010000Y-76200000D03*
X80010000Y-73660000D03*
X80010000Y-71120000D03*
X80010000Y-68580000D03*
X80010000Y-66040000D03*
X80010000Y-63500000D03*
X80010000Y-60960000D03*
X80010000Y-58420000D03*
X80010000Y-55880000D03*
X80010000Y-53340000D03*
X80010000Y-50800000D03*
X80010000Y-48260000D03*
X80010000Y-45720000D03*
X80010000Y-43180000D03*
X80010000Y-40640000D03*
X80010000Y-38100000D03*
X80010000Y-35560000D03*
X80010000Y-33020000D03*
X80010000Y-30480000D03*
D11*
X77470000Y-78740000D03*
D12*
X77470000Y-76200000D03*
X77470000Y-73660000D03*
X77470000Y-71120000D03*
X77470000Y-68580000D03*
X77470000Y-66040000D03*
X77470000Y-63500000D03*
X77470000Y-60960000D03*
X77470000Y-58420000D03*
X77470000Y-55880000D03*
X77470000Y-53340000D03*
X77470000Y-50800000D03*
X77470000Y-48260000D03*
X77470000Y-45720000D03*
X77470000Y-43180000D03*
X77470000Y-40640000D03*
X77470000Y-38100000D03*
X77470000Y-35560000D03*
X77470000Y-33020000D03*
X77470000Y-30480000D03*
D15*
X80010000Y-100330000D03*
D16*
X86302400Y-92743600D03*
X75180200Y-103184700D03*
X88981000Y-62974100D03*
X83658800Y-109623700D03*
X80010000Y-82111900D03*
X84858300Y-75176100D03*
X85534700Y-75882600D03*
X79026300Y-84407500D03*
X81453000Y-102901200D03*
X82078400Y-105503300D03*
X82583100Y-97293300D03*
X83101300Y-52020100D03*
X84296700Y-94417500D03*
X84284100Y-117905300D03*
D17*
X87630000Y-106680000D02*
X87630000Y-105491100D01*
X86288700Y-92757300D02*
X86302400Y-92743600D01*
X86288700Y-104632600D02*
X86288700Y-92757300D01*
X87147200Y-105491100D02*
X86288700Y-104632600D01*
X87630000Y-105491100D02*
X87147200Y-105491100D01*
X77470000Y-76200000D02*
X77470000Y-77388900D01*
X75180200Y-78638400D02*
X75180200Y-103184700D01*
X76429700Y-77388900D02*
X75180200Y-78638400D01*
X77470000Y-77388900D02*
X76429700Y-77388900D01*
X77470000Y-58420000D02*
X77470000Y-59608900D01*
X69850000Y-119380000D02*
X69850000Y-118191100D01*
X70333800Y-118191100D02*
X69850000Y-118191100D01*
X72086200Y-116438700D02*
X70333800Y-118191100D01*
X72086200Y-64472600D02*
X72086200Y-116438700D01*
X76949900Y-59608900D02*
X72086200Y-64472600D01*
X77470000Y-59608900D02*
X76949900Y-59608900D01*
X87630000Y-96520000D02*
X87630000Y-95331100D01*
X88981000Y-94463900D02*
X88981000Y-62974100D01*
X88113800Y-95331100D02*
X88981000Y-94463900D01*
X87630000Y-95331100D02*
X88113800Y-95331100D01*
X70333800Y-97871100D02*
X69850000Y-97871100D01*
X71201000Y-97003900D02*
X70333800Y-97871100D01*
X71201000Y-57737800D02*
X71201000Y-97003900D01*
X76949900Y-51988900D02*
X71201000Y-57737800D01*
X77470000Y-51988900D02*
X76949900Y-51988900D01*
X77470000Y-50800000D02*
X77470000Y-51988900D01*
X69850000Y-99060000D02*
X69850000Y-97871100D01*
X69366200Y-102951100D02*
X69850000Y-102951100D01*
X68014800Y-101599700D02*
X69366200Y-102951100D01*
X68014800Y-57715200D02*
X68014800Y-101599700D01*
X77470000Y-48260000D02*
X68014800Y-57715200D01*
X69850000Y-104140000D02*
X69850000Y-102951100D01*
X77470000Y-45720000D02*
X77470000Y-46908900D01*
X83658800Y-95300800D02*
X83658800Y-109623700D01*
X83221100Y-94863100D02*
X83658800Y-95300800D01*
X83221100Y-77000900D02*
X83221100Y-94863100D01*
X82375800Y-76155600D02*
X83221100Y-77000900D01*
X82375800Y-53236300D02*
X82375800Y-76155600D01*
X82025700Y-52886200D02*
X82375800Y-53236300D01*
X82025700Y-48398800D02*
X82025700Y-52886200D01*
X80535800Y-46908900D02*
X82025700Y-48398800D01*
X77470000Y-46908900D02*
X80535800Y-46908900D01*
X77470000Y-40640000D02*
X77470000Y-39451100D01*
X87630000Y-124460000D02*
X87630000Y-123271100D01*
X87146100Y-123271100D02*
X87630000Y-123271100D01*
X85459800Y-121584800D02*
X87146100Y-123271100D01*
X85459800Y-76692000D02*
X85459800Y-121584800D01*
X84233000Y-75465200D02*
X85459800Y-76692000D01*
X84233000Y-42944200D02*
X84233000Y-75465200D01*
X80739900Y-39451100D02*
X84233000Y-42944200D01*
X77470000Y-39451100D02*
X80739900Y-39451100D01*
X77470000Y-35560000D02*
X80010000Y-35560000D01*
X80010000Y-95250000D02*
X80010000Y-96520000D01*
X80010000Y-35560000D02*
X80010000Y-36748900D01*
X84858300Y-41113400D02*
X84858300Y-75176100D01*
X80493800Y-36748900D02*
X84858300Y-41113400D01*
X80010000Y-36748900D02*
X80493800Y-36748900D01*
X80010000Y-95250000D02*
X80010000Y-82111900D01*
X85534700Y-39213500D02*
X85534700Y-75882600D01*
X80530100Y-34208900D02*
X85534700Y-39213500D01*
X80010000Y-34208900D02*
X80530100Y-34208900D01*
X79026300Y-93622400D02*
X77470000Y-95178700D01*
X79026300Y-84407500D02*
X79026300Y-93622400D01*
X77470000Y-96520000D02*
X77470000Y-95178700D01*
X80010000Y-33020000D02*
X80010000Y-34208900D01*
X80010000Y-78740000D02*
X80010000Y-79928900D01*
X81453000Y-95642600D02*
X81453000Y-102901200D01*
X81419900Y-95609500D02*
X81453000Y-95642600D01*
X81419900Y-81338800D02*
X81419900Y-95609500D01*
X80010000Y-79928900D02*
X81419900Y-81338800D01*
X80010000Y-76200000D02*
X80010000Y-77388900D01*
X82078400Y-99061200D02*
X82078400Y-105503300D01*
X81927400Y-98910200D02*
X82078400Y-99061200D01*
X81927400Y-95480100D02*
X81927400Y-98910200D01*
X81870200Y-95422900D02*
X81927400Y-95480100D01*
X81870200Y-78208800D02*
X81870200Y-95422900D01*
X81050300Y-77388900D02*
X81870200Y-78208800D01*
X80010000Y-77388900D02*
X81050300Y-77388900D01*
X80010000Y-73660000D02*
X80010000Y-74848900D01*
X82583100Y-95498900D02*
X82583100Y-97293300D01*
X82320500Y-95236300D02*
X82583100Y-95498900D01*
X82320500Y-77374100D02*
X82320500Y-95236300D01*
X81475200Y-76528800D02*
X82320500Y-77374100D01*
X81475200Y-75826100D02*
X81475200Y-76528800D01*
X80498000Y-74848900D02*
X81475200Y-75826100D01*
X80010000Y-74848900D02*
X80498000Y-74848900D01*
X70333800Y-120731100D02*
X69850000Y-120731100D01*
X74554800Y-116510100D02*
X70333800Y-120731100D01*
X74554800Y-64500100D02*
X74554800Y-116510100D01*
X76824900Y-62230000D02*
X74554800Y-64500100D01*
X80584900Y-62230000D02*
X76824900Y-62230000D01*
X81389500Y-61425400D02*
X80584900Y-62230000D01*
X81389500Y-57928300D02*
X81389500Y-61425400D01*
X80530100Y-57068900D02*
X81389500Y-57928300D01*
X80010000Y-57068900D02*
X80530100Y-57068900D01*
X80010000Y-55880000D02*
X80010000Y-57068900D01*
X69850000Y-121920000D02*
X69850000Y-120731100D01*
X80010000Y-53340000D02*
X80010000Y-54528900D01*
X69850000Y-127000000D02*
X69850000Y-125811100D01*
X70333800Y-125811100D02*
X69850000Y-125811100D01*
X83033500Y-113111400D02*
X70333800Y-125811100D01*
X83033500Y-107176700D02*
X83033500Y-113111400D01*
X83208500Y-107001700D02*
X83033500Y-107176700D01*
X83208500Y-95487400D02*
X83208500Y-107001700D01*
X82770800Y-95049700D02*
X83208500Y-95487400D01*
X82770800Y-77187500D02*
X82770800Y-95049700D01*
X81925500Y-76342200D02*
X82770800Y-77187500D01*
X81925500Y-55924200D02*
X81925500Y-76342200D01*
X80530200Y-54528900D02*
X81925500Y-55924200D01*
X80010000Y-54528900D02*
X80530200Y-54528900D01*
X80010000Y-50800000D02*
X80010000Y-49611100D01*
X69850000Y-101600000D02*
X69850000Y-100411100D01*
X76812900Y-49611100D02*
X80010000Y-49611100D01*
X68505500Y-57918500D02*
X76812900Y-49611100D01*
X68505500Y-99550400D02*
X68505500Y-57918500D01*
X69366200Y-100411100D02*
X68505500Y-99550400D01*
X69850000Y-100411100D02*
X69366200Y-100411100D01*
X84296700Y-76802700D02*
X84296700Y-94417500D01*
X83276400Y-75782400D02*
X84296700Y-76802700D01*
X83276400Y-52195200D02*
X83276400Y-75782400D01*
X83101300Y-52020100D02*
X83276400Y-52195200D01*
X80010000Y-43180000D02*
X80010000Y-44368900D01*
X84284100Y-95289200D02*
X84284100Y-117905300D01*
X83671400Y-94676500D02*
X84284100Y-95289200D01*
X83671400Y-76814300D02*
X83671400Y-94676500D01*
X82826100Y-75969000D02*
X83671400Y-76814300D01*
X82826100Y-53049700D02*
X82826100Y-75969000D01*
X82476000Y-52699600D02*
X82826100Y-53049700D01*
X82476000Y-46350900D02*
X82476000Y-52699600D01*
X80494000Y-44368900D02*
X82476000Y-46350900D01*
X80010000Y-44368900D02*
X80494000Y-44368900D01*
X80010000Y-40640000D02*
X80010000Y-41828900D01*
X87630000Y-127000000D02*
X87630000Y-125811100D01*
X87146200Y-125811100D02*
X87630000Y-125811100D01*
X84949700Y-123614600D02*
X87146200Y-125811100D01*
X84949700Y-76818800D02*
X84949700Y-123614600D01*
X83726700Y-75595800D02*
X84949700Y-76818800D01*
X83726700Y-45025500D02*
X83726700Y-75595800D01*
X80530100Y-41828900D02*
X83726700Y-45025500D01*
X80010000Y-41828900D02*
X80530100Y-41828900D01*
D18*
G36*
X90730000Y-130100000D02*
X66750000Y-130100000D01*
X66750000Y-57715200D01*
X67254800Y-57715200D01*
X67254800Y-101599700D01*
X67312652Y-101890539D01*
X67477399Y-102137101D01*
X68531502Y-103191204D01*
X68280729Y-103566511D01*
X68166655Y-104140000D01*
X68280729Y-104713489D01*
X68605585Y-105199670D01*
X68920366Y-105410000D01*
X68605585Y-105620330D01*
X68280729Y-106106511D01*
X68166655Y-106680000D01*
X68280729Y-107253489D01*
X68605585Y-107739670D01*
X68920366Y-107950000D01*
X68605585Y-108160330D01*
X68280729Y-108646511D01*
X68166655Y-109220000D01*
X68280729Y-109793489D01*
X68605585Y-110279670D01*
X68920366Y-110490000D01*
X68605585Y-110700330D01*
X68280729Y-111186511D01*
X68166655Y-111760000D01*
X68280729Y-112333489D01*
X68605585Y-112819670D01*
X68920366Y-113030000D01*
X68605585Y-113240330D01*
X68280729Y-113726511D01*
X68166655Y-114300000D01*
X68280729Y-114873489D01*
X68605585Y-115359670D01*
X68920366Y-115570000D01*
X68605585Y-115780330D01*
X68280729Y-116266511D01*
X68166655Y-116840000D01*
X68280729Y-117413489D01*
X68605585Y-117899670D01*
X68920366Y-118110000D01*
X68605585Y-118320330D01*
X68280729Y-118806511D01*
X68166655Y-119380000D01*
X68280729Y-119953489D01*
X68605585Y-120439670D01*
X68920366Y-120650000D01*
X68605585Y-120860330D01*
X68280729Y-121346511D01*
X68166655Y-121920000D01*
X68280729Y-122493489D01*
X68605585Y-122979670D01*
X68920366Y-123190000D01*
X68605585Y-123400330D01*
X68280729Y-123886511D01*
X68166655Y-124460000D01*
X68280729Y-125033489D01*
X68605585Y-125519670D01*
X68920366Y-125730000D01*
X68605585Y-125940330D01*
X68280729Y-126426511D01*
X68166655Y-127000000D01*
X68280729Y-127573489D01*
X68605585Y-128059670D01*
X69091766Y-128384526D01*
X69665255Y-128498600D01*
X70034745Y-128498600D01*
X70608234Y-128384526D01*
X71094415Y-128059670D01*
X71419271Y-127573489D01*
X71533345Y-127000000D01*
X71419271Y-126426511D01*
X71168498Y-126051204D01*
X83524100Y-113695602D01*
X83524100Y-117342837D01*
X83491908Y-117374973D01*
X83349262Y-117718501D01*
X83348938Y-118090467D01*
X83490983Y-118434243D01*
X83753773Y-118697492D01*
X84097301Y-118840138D01*
X84189700Y-118840218D01*
X84189700Y-123614600D01*
X84247552Y-123905439D01*
X84412299Y-124152001D01*
X86311502Y-126051204D01*
X86060729Y-126426511D01*
X85946655Y-127000000D01*
X86060729Y-127573489D01*
X86385585Y-128059670D01*
X86871766Y-128384526D01*
X87445255Y-128498600D01*
X87814745Y-128498600D01*
X88388234Y-128384526D01*
X88874415Y-128059670D01*
X89199271Y-127573489D01*
X89313345Y-127000000D01*
X89199271Y-126426511D01*
X88874415Y-125940330D01*
X88559634Y-125730000D01*
X88874415Y-125519670D01*
X89199271Y-125033489D01*
X89313345Y-124460000D01*
X89199271Y-123886511D01*
X88874415Y-123400330D01*
X88559634Y-123190000D01*
X88874415Y-122979670D01*
X89199271Y-122493489D01*
X89313345Y-121920000D01*
X89199271Y-121346511D01*
X88874415Y-120860330D01*
X88559634Y-120650000D01*
X88874415Y-120439670D01*
X89199271Y-119953489D01*
X89313345Y-119380000D01*
X89199271Y-118806511D01*
X88874415Y-118320330D01*
X88559634Y-118110000D01*
X88874415Y-117899670D01*
X89199271Y-117413489D01*
X89313345Y-116840000D01*
X89199271Y-116266511D01*
X88874415Y-115780330D01*
X88559634Y-115570000D01*
X88874415Y-115359670D01*
X89199271Y-114873489D01*
X89313345Y-114300000D01*
X89199271Y-113726511D01*
X88874415Y-113240330D01*
X88559634Y-113030000D01*
X88874415Y-112819670D01*
X89199271Y-112333489D01*
X89313345Y-111760000D01*
X89199271Y-111186511D01*
X88874415Y-110700330D01*
X88559634Y-110490000D01*
X88874415Y-110279670D01*
X89199271Y-109793489D01*
X89313345Y-109220000D01*
X89199271Y-108646511D01*
X88874415Y-108160330D01*
X88559634Y-107950000D01*
X88874415Y-107739670D01*
X89199271Y-107253489D01*
X89313345Y-106680000D01*
X89199271Y-106106511D01*
X88874415Y-105620330D01*
X88559634Y-105410000D01*
X88874415Y-105199670D01*
X89199271Y-104713489D01*
X89313345Y-104140000D01*
X89199271Y-103566511D01*
X88874415Y-103080330D01*
X88559634Y-102870000D01*
X88874415Y-102659670D01*
X89199271Y-102173489D01*
X89313345Y-101600000D01*
X89199271Y-101026511D01*
X88874415Y-100540330D01*
X88559634Y-100330000D01*
X88874415Y-100119670D01*
X89199271Y-99633489D01*
X89313345Y-99060000D01*
X89199271Y-98486511D01*
X88874415Y-98000330D01*
X88559634Y-97790000D01*
X88874415Y-97579670D01*
X89199271Y-97093489D01*
X89313345Y-96520000D01*
X89199271Y-95946511D01*
X88948498Y-95571204D01*
X89518401Y-95001301D01*
X89683148Y-94754739D01*
X89741000Y-94463900D01*
X89741000Y-63536563D01*
X89773192Y-63504427D01*
X89915838Y-63160899D01*
X89916162Y-62788933D01*
X89774117Y-62445157D01*
X89511327Y-62181908D01*
X89167799Y-62039262D01*
X88795833Y-62038938D01*
X88452057Y-62180983D01*
X88188808Y-62443773D01*
X88046162Y-62787301D01*
X88045838Y-63159267D01*
X88187883Y-63503043D01*
X88221000Y-63536218D01*
X88221000Y-87388960D01*
X86614000Y-87388960D01*
X86378683Y-87433238D01*
X86219800Y-87535476D01*
X86219800Y-76692000D01*
X86198735Y-76586099D01*
X86161948Y-76401160D01*
X85997201Y-76154599D01*
X85599716Y-75757114D01*
X85650492Y-75706427D01*
X85793138Y-75362899D01*
X85793462Y-74990933D01*
X85651417Y-74647157D01*
X85618300Y-74613982D01*
X85618300Y-41113400D01*
X85560448Y-40822561D01*
X85395701Y-40575999D01*
X81328498Y-36508796D01*
X81579271Y-36133489D01*
X81693345Y-35560000D01*
X81579271Y-34986511D01*
X81254415Y-34500330D01*
X80944931Y-34293539D01*
X81360732Y-33922036D01*
X81614709Y-33394791D01*
X81617358Y-33379026D01*
X81496217Y-33147000D01*
X80137000Y-33147000D01*
X80137000Y-33167000D01*
X79883000Y-33167000D01*
X79883000Y-33147000D01*
X77597000Y-33147000D01*
X77597000Y-33167000D01*
X77343000Y-33167000D01*
X77343000Y-33147000D01*
X75983783Y-33147000D01*
X75862642Y-33379026D01*
X75865291Y-33394791D01*
X76119268Y-33922036D01*
X76535069Y-34293539D01*
X76225585Y-34500330D01*
X75900729Y-34986511D01*
X75786655Y-35560000D01*
X75900729Y-36133489D01*
X76225585Y-36619670D01*
X76540366Y-36830000D01*
X76225585Y-37040330D01*
X75900729Y-37526511D01*
X75786655Y-38100000D01*
X75900729Y-38673489D01*
X76225585Y-39159670D01*
X76540366Y-39370000D01*
X76225585Y-39580330D01*
X75900729Y-40066511D01*
X75786655Y-40640000D01*
X75900729Y-41213489D01*
X76225585Y-41699670D01*
X76540366Y-41910000D01*
X76225585Y-42120330D01*
X75900729Y-42606511D01*
X75786655Y-43180000D01*
X75900729Y-43753489D01*
X76225585Y-44239670D01*
X76540366Y-44450000D01*
X76225585Y-44660330D01*
X75900729Y-45146511D01*
X75786655Y-45720000D01*
X75900729Y-46293489D01*
X76225585Y-46779670D01*
X76540366Y-46990000D01*
X76225585Y-47200330D01*
X75900729Y-47686511D01*
X75786655Y-48260000D01*
X75887619Y-48767579D01*
X67477399Y-57177799D01*
X67312652Y-57424361D01*
X67254800Y-57715200D01*
X66750000Y-57715200D01*
X66750000Y-30480000D01*
X75786655Y-30480000D01*
X75900729Y-31053489D01*
X76225585Y-31539670D01*
X76535069Y-31746461D01*
X76119268Y-32117964D01*
X75865291Y-32645209D01*
X75862642Y-32660974D01*
X75983783Y-32893000D01*
X77343000Y-32893000D01*
X77343000Y-32873000D01*
X77597000Y-32873000D01*
X77597000Y-32893000D01*
X79883000Y-32893000D01*
X79883000Y-32873000D01*
X80137000Y-32873000D01*
X80137000Y-32893000D01*
X81496217Y-32893000D01*
X81617358Y-32660974D01*
X81614709Y-32645209D01*
X81360732Y-32117964D01*
X80944931Y-31746461D01*
X81254415Y-31539670D01*
X81579271Y-31053489D01*
X81693345Y-30480000D01*
X81579271Y-29906511D01*
X81254415Y-29420330D01*
X80768234Y-29095474D01*
X80194745Y-28981400D01*
X79825255Y-28981400D01*
X79251766Y-29095474D01*
X78765585Y-29420330D01*
X78740000Y-29458621D01*
X78714415Y-29420330D01*
X78228234Y-29095474D01*
X77654745Y-28981400D01*
X77285255Y-28981400D01*
X76711766Y-29095474D01*
X76225585Y-29420330D01*
X75900729Y-29906511D01*
X75786655Y-30480000D01*
X66750000Y-30480000D01*
X66750000Y-27380000D01*
X90730000Y-27380000D01*
X90730000Y-130100000D01*
X90730000Y-130100000D01*
G37*
X90730000Y-130100000D02*
X66750000Y-130100000D01*
X66750000Y-57715200D01*
X67254800Y-57715200D01*
X67254800Y-101599700D01*
X67312652Y-101890539D01*
X67477399Y-102137101D01*
X68531502Y-103191204D01*
X68280729Y-103566511D01*
X68166655Y-104140000D01*
X68280729Y-104713489D01*
X68605585Y-105199670D01*
X68920366Y-105410000D01*
X68605585Y-105620330D01*
X68280729Y-106106511D01*
X68166655Y-106680000D01*
X68280729Y-107253489D01*
X68605585Y-107739670D01*
X68920366Y-107950000D01*
X68605585Y-108160330D01*
X68280729Y-108646511D01*
X68166655Y-109220000D01*
X68280729Y-109793489D01*
X68605585Y-110279670D01*
X68920366Y-110490000D01*
X68605585Y-110700330D01*
X68280729Y-111186511D01*
X68166655Y-111760000D01*
X68280729Y-112333489D01*
X68605585Y-112819670D01*
X68920366Y-113030000D01*
X68605585Y-113240330D01*
X68280729Y-113726511D01*
X68166655Y-114300000D01*
X68280729Y-114873489D01*
X68605585Y-115359670D01*
X68920366Y-115570000D01*
X68605585Y-115780330D01*
X68280729Y-116266511D01*
X68166655Y-116840000D01*
X68280729Y-117413489D01*
X68605585Y-117899670D01*
X68920366Y-118110000D01*
X68605585Y-118320330D01*
X68280729Y-118806511D01*
X68166655Y-119380000D01*
X68280729Y-119953489D01*
X68605585Y-120439670D01*
X68920366Y-120650000D01*
X68605585Y-120860330D01*
X68280729Y-121346511D01*
X68166655Y-121920000D01*
X68280729Y-122493489D01*
X68605585Y-122979670D01*
X68920366Y-123190000D01*
X68605585Y-123400330D01*
X68280729Y-123886511D01*
X68166655Y-124460000D01*
X68280729Y-125033489D01*
X68605585Y-125519670D01*
X68920366Y-125730000D01*
X68605585Y-125940330D01*
X68280729Y-126426511D01*
X68166655Y-127000000D01*
X68280729Y-127573489D01*
X68605585Y-128059670D01*
X69091766Y-128384526D01*
X69665255Y-128498600D01*
X70034745Y-128498600D01*
X70608234Y-128384526D01*
X71094415Y-128059670D01*
X71419271Y-127573489D01*
X71533345Y-127000000D01*
X71419271Y-126426511D01*
X71168498Y-126051204D01*
X83524100Y-113695602D01*
X83524100Y-117342837D01*
X83491908Y-117374973D01*
X83349262Y-117718501D01*
X83348938Y-118090467D01*
X83490983Y-118434243D01*
X83753773Y-118697492D01*
X84097301Y-118840138D01*
X84189700Y-118840218D01*
X84189700Y-123614600D01*
X84247552Y-123905439D01*
X84412299Y-124152001D01*
X86311502Y-126051204D01*
X86060729Y-126426511D01*
X85946655Y-127000000D01*
X86060729Y-127573489D01*
X86385585Y-128059670D01*
X86871766Y-128384526D01*
X87445255Y-128498600D01*
X87814745Y-128498600D01*
X88388234Y-128384526D01*
X88874415Y-128059670D01*
X89199271Y-127573489D01*
X89313345Y-127000000D01*
X89199271Y-126426511D01*
X88874415Y-125940330D01*
X88559634Y-125730000D01*
X88874415Y-125519670D01*
X89199271Y-125033489D01*
X89313345Y-124460000D01*
X89199271Y-123886511D01*
X88874415Y-123400330D01*
X88559634Y-123190000D01*
X88874415Y-122979670D01*
X89199271Y-122493489D01*
X89313345Y-121920000D01*
X89199271Y-121346511D01*
X88874415Y-120860330D01*
X88559634Y-120650000D01*
X88874415Y-120439670D01*
X89199271Y-119953489D01*
X89313345Y-119380000D01*
X89199271Y-118806511D01*
X88874415Y-118320330D01*
X88559634Y-118110000D01*
X88874415Y-117899670D01*
X89199271Y-117413489D01*
X89313345Y-116840000D01*
X89199271Y-116266511D01*
X88874415Y-115780330D01*
X88559634Y-115570000D01*
X88874415Y-115359670D01*
X89199271Y-114873489D01*
X89313345Y-114300000D01*
X89199271Y-113726511D01*
X88874415Y-113240330D01*
X88559634Y-113030000D01*
X88874415Y-112819670D01*
X89199271Y-112333489D01*
X89313345Y-111760000D01*
X89199271Y-111186511D01*
X88874415Y-110700330D01*
X88559634Y-110490000D01*
X88874415Y-110279670D01*
X89199271Y-109793489D01*
X89313345Y-109220000D01*
X89199271Y-108646511D01*
X88874415Y-108160330D01*
X88559634Y-107950000D01*
X88874415Y-107739670D01*
X89199271Y-107253489D01*
X89313345Y-106680000D01*
X89199271Y-106106511D01*
X88874415Y-105620330D01*
X88559634Y-105410000D01*
X88874415Y-105199670D01*
X89199271Y-104713489D01*
X89313345Y-104140000D01*
X89199271Y-103566511D01*
X88874415Y-103080330D01*
X88559634Y-102870000D01*
X88874415Y-102659670D01*
X89199271Y-102173489D01*
X89313345Y-101600000D01*
X89199271Y-101026511D01*
X88874415Y-100540330D01*
X88559634Y-100330000D01*
X88874415Y-100119670D01*
X89199271Y-99633489D01*
X89313345Y-99060000D01*
X89199271Y-98486511D01*
X88874415Y-98000330D01*
X88559634Y-97790000D01*
X88874415Y-97579670D01*
X89199271Y-97093489D01*
X89313345Y-96520000D01*
X89199271Y-95946511D01*
X88948498Y-95571204D01*
X89518401Y-95001301D01*
X89683148Y-94754739D01*
X89741000Y-94463900D01*
X89741000Y-63536563D01*
X89773192Y-63504427D01*
X89915838Y-63160899D01*
X89916162Y-62788933D01*
X89774117Y-62445157D01*
X89511327Y-62181908D01*
X89167799Y-62039262D01*
X88795833Y-62038938D01*
X88452057Y-62180983D01*
X88188808Y-62443773D01*
X88046162Y-62787301D01*
X88045838Y-63159267D01*
X88187883Y-63503043D01*
X88221000Y-63536218D01*
X88221000Y-87388960D01*
X86614000Y-87388960D01*
X86378683Y-87433238D01*
X86219800Y-87535476D01*
X86219800Y-76692000D01*
X86198735Y-76586099D01*
X86161948Y-76401160D01*
X85997201Y-76154599D01*
X85599716Y-75757114D01*
X85650492Y-75706427D01*
X85793138Y-75362899D01*
X85793462Y-74990933D01*
X85651417Y-74647157D01*
X85618300Y-74613982D01*
X85618300Y-41113400D01*
X85560448Y-40822561D01*
X85395701Y-40575999D01*
X81328498Y-36508796D01*
X81579271Y-36133489D01*
X81693345Y-35560000D01*
X81579271Y-34986511D01*
X81254415Y-34500330D01*
X80944931Y-34293539D01*
X81360732Y-33922036D01*
X81614709Y-33394791D01*
X81617358Y-33379026D01*
X81496217Y-33147000D01*
X80137000Y-33147000D01*
X80137000Y-33167000D01*
X79883000Y-33167000D01*
X79883000Y-33147000D01*
X77597000Y-33147000D01*
X77597000Y-33167000D01*
X77343000Y-33167000D01*
X77343000Y-33147000D01*
X75983783Y-33147000D01*
X75862642Y-33379026D01*
X75865291Y-33394791D01*
X76119268Y-33922036D01*
X76535069Y-34293539D01*
X76225585Y-34500330D01*
X75900729Y-34986511D01*
X75786655Y-35560000D01*
X75900729Y-36133489D01*
X76225585Y-36619670D01*
X76540366Y-36830000D01*
X76225585Y-37040330D01*
X75900729Y-37526511D01*
X75786655Y-38100000D01*
X75900729Y-38673489D01*
X76225585Y-39159670D01*
X76540366Y-39370000D01*
X76225585Y-39580330D01*
X75900729Y-40066511D01*
X75786655Y-40640000D01*
X75900729Y-41213489D01*
X76225585Y-41699670D01*
X76540366Y-41910000D01*
X76225585Y-42120330D01*
X75900729Y-42606511D01*
X75786655Y-43180000D01*
X75900729Y-43753489D01*
X76225585Y-44239670D01*
X76540366Y-44450000D01*
X76225585Y-44660330D01*
X75900729Y-45146511D01*
X75786655Y-45720000D01*
X75900729Y-46293489D01*
X76225585Y-46779670D01*
X76540366Y-46990000D01*
X76225585Y-47200330D01*
X75900729Y-47686511D01*
X75786655Y-48260000D01*
X75887619Y-48767579D01*
X67477399Y-57177799D01*
X67312652Y-57424361D01*
X67254800Y-57715200D01*
X66750000Y-57715200D01*
X66750000Y-30480000D01*
X75786655Y-30480000D01*
X75900729Y-31053489D01*
X76225585Y-31539670D01*
X76535069Y-31746461D01*
X76119268Y-32117964D01*
X75865291Y-32645209D01*
X75862642Y-32660974D01*
X75983783Y-32893000D01*
X77343000Y-32893000D01*
X77343000Y-32873000D01*
X77597000Y-32873000D01*
X77597000Y-32893000D01*
X79883000Y-32893000D01*
X79883000Y-32873000D01*
X80137000Y-32873000D01*
X80137000Y-32893000D01*
X81496217Y-32893000D01*
X81617358Y-32660974D01*
X81614709Y-32645209D01*
X81360732Y-32117964D01*
X80944931Y-31746461D01*
X81254415Y-31539670D01*
X81579271Y-31053489D01*
X81693345Y-30480000D01*
X81579271Y-29906511D01*
X81254415Y-29420330D01*
X80768234Y-29095474D01*
X80194745Y-28981400D01*
X79825255Y-28981400D01*
X79251766Y-29095474D01*
X78765585Y-29420330D01*
X78740000Y-29458621D01*
X78714415Y-29420330D01*
X78228234Y-29095474D01*
X77654745Y-28981400D01*
X77285255Y-28981400D01*
X76711766Y-29095474D01*
X76225585Y-29420330D01*
X75900729Y-29906511D01*
X75786655Y-30480000D01*
X66750000Y-30480000D01*
X66750000Y-27380000D01*
X90730000Y-27380000D01*
X90730000Y-130100000D01*
G36*
X75989910Y-80055041D02*
X76202110Y-80200031D01*
X76454000Y-80251040D01*
X78486000Y-80251040D01*
X78721317Y-80206762D01*
X78737099Y-80196607D01*
X78742110Y-80200031D01*
X78994000Y-80251040D01*
X79328767Y-80251040D01*
X79472599Y-80466301D01*
X80183348Y-81177050D01*
X79824833Y-81176738D01*
X79481057Y-81318783D01*
X79217808Y-81581573D01*
X79075162Y-81925101D01*
X79074838Y-82297067D01*
X79216883Y-82640843D01*
X79250000Y-82674018D01*
X79250000Y-94856560D01*
X78994000Y-94856560D01*
X78758683Y-94900838D01*
X78542559Y-95039910D01*
X78431160Y-95202948D01*
X78334818Y-95113615D01*
X77852944Y-94914025D01*
X77597000Y-95033164D01*
X77597000Y-96393000D01*
X77617000Y-96393000D01*
X77617000Y-96647000D01*
X77597000Y-96647000D01*
X77597000Y-98006836D01*
X77852944Y-98125975D01*
X78334818Y-97926385D01*
X78432398Y-97835903D01*
X78529910Y-97987441D01*
X78742110Y-98132431D01*
X78994000Y-98183440D01*
X80693000Y-98183440D01*
X80693000Y-98564960D01*
X78892400Y-98564960D01*
X78657083Y-98609238D01*
X78440959Y-98748310D01*
X78295969Y-98960510D01*
X78244960Y-99212400D01*
X78244960Y-101447600D01*
X78289238Y-101682917D01*
X78428310Y-101899041D01*
X78640510Y-102044031D01*
X78892400Y-102095040D01*
X80693000Y-102095040D01*
X80693000Y-102338737D01*
X80660808Y-102370873D01*
X80518162Y-102714401D01*
X80517838Y-103086367D01*
X80659883Y-103430143D01*
X80922673Y-103693392D01*
X81266201Y-103836038D01*
X81318400Y-103836083D01*
X81318400Y-104940837D01*
X81286208Y-104972973D01*
X81143562Y-105316501D01*
X81143238Y-105688467D01*
X81285283Y-106032243D01*
X81548073Y-106295492D01*
X81891601Y-106438138D01*
X82263567Y-106438462D01*
X82448500Y-106362049D01*
X82448500Y-106710536D01*
X82331352Y-106885861D01*
X82273500Y-107176700D01*
X82273500Y-112796598D01*
X71324869Y-123745229D01*
X71094415Y-123400330D01*
X70779634Y-123190000D01*
X71094415Y-122979670D01*
X71419271Y-122493489D01*
X71533345Y-121920000D01*
X71419271Y-121346511D01*
X71168498Y-120971204D01*
X75092201Y-117047501D01*
X75256948Y-116800940D01*
X75271150Y-116729539D01*
X75314800Y-116510100D01*
X75314800Y-104119818D01*
X75365367Y-104119862D01*
X75709143Y-103977817D01*
X75972392Y-103715027D01*
X76115038Y-103371499D01*
X76115362Y-102999533D01*
X75973317Y-102655757D01*
X75940200Y-102622582D01*
X75940200Y-97068872D01*
X76132812Y-97488379D01*
X76605182Y-97926385D01*
X77087056Y-98125975D01*
X77343000Y-98006836D01*
X77343000Y-96647000D01*
X77323000Y-96647000D01*
X77323000Y-96393000D01*
X77343000Y-96393000D01*
X77343000Y-95033164D01*
X77087056Y-94914025D01*
X76605182Y-95113615D01*
X76132812Y-95551621D01*
X75940200Y-95971128D01*
X75940200Y-79977789D01*
X75989910Y-80055041D01*
X75989910Y-80055041D01*
G37*
X75989910Y-80055041D02*
X76202110Y-80200031D01*
X76454000Y-80251040D01*
X78486000Y-80251040D01*
X78721317Y-80206762D01*
X78737099Y-80196607D01*
X78742110Y-80200031D01*
X78994000Y-80251040D01*
X79328767Y-80251040D01*
X79472599Y-80466301D01*
X80183348Y-81177050D01*
X79824833Y-81176738D01*
X79481057Y-81318783D01*
X79217808Y-81581573D01*
X79075162Y-81925101D01*
X79074838Y-82297067D01*
X79216883Y-82640843D01*
X79250000Y-82674018D01*
X79250000Y-94856560D01*
X78994000Y-94856560D01*
X78758683Y-94900838D01*
X78542559Y-95039910D01*
X78431160Y-95202948D01*
X78334818Y-95113615D01*
X77852944Y-94914025D01*
X77597000Y-95033164D01*
X77597000Y-96393000D01*
X77617000Y-96393000D01*
X77617000Y-96647000D01*
X77597000Y-96647000D01*
X77597000Y-98006836D01*
X77852944Y-98125975D01*
X78334818Y-97926385D01*
X78432398Y-97835903D01*
X78529910Y-97987441D01*
X78742110Y-98132431D01*
X78994000Y-98183440D01*
X80693000Y-98183440D01*
X80693000Y-98564960D01*
X78892400Y-98564960D01*
X78657083Y-98609238D01*
X78440959Y-98748310D01*
X78295969Y-98960510D01*
X78244960Y-99212400D01*
X78244960Y-101447600D01*
X78289238Y-101682917D01*
X78428310Y-101899041D01*
X78640510Y-102044031D01*
X78892400Y-102095040D01*
X80693000Y-102095040D01*
X80693000Y-102338737D01*
X80660808Y-102370873D01*
X80518162Y-102714401D01*
X80517838Y-103086367D01*
X80659883Y-103430143D01*
X80922673Y-103693392D01*
X81266201Y-103836038D01*
X81318400Y-103836083D01*
X81318400Y-104940837D01*
X81286208Y-104972973D01*
X81143562Y-105316501D01*
X81143238Y-105688467D01*
X81285283Y-106032243D01*
X81548073Y-106295492D01*
X81891601Y-106438138D01*
X82263567Y-106438462D01*
X82448500Y-106362049D01*
X82448500Y-106710536D01*
X82331352Y-106885861D01*
X82273500Y-107176700D01*
X82273500Y-112796598D01*
X71324869Y-123745229D01*
X71094415Y-123400330D01*
X70779634Y-123190000D01*
X71094415Y-122979670D01*
X71419271Y-122493489D01*
X71533345Y-121920000D01*
X71419271Y-121346511D01*
X71168498Y-120971204D01*
X75092201Y-117047501D01*
X75256948Y-116800940D01*
X75271150Y-116729539D01*
X75314800Y-116510100D01*
X75314800Y-104119818D01*
X75365367Y-104119862D01*
X75709143Y-103977817D01*
X75972392Y-103715027D01*
X76115038Y-103371499D01*
X76115362Y-102999533D01*
X75973317Y-102655757D01*
X75940200Y-102622582D01*
X75940200Y-97068872D01*
X76132812Y-97488379D01*
X76605182Y-97926385D01*
X77087056Y-98125975D01*
X77343000Y-98006836D01*
X77343000Y-96647000D01*
X77323000Y-96647000D01*
X77323000Y-96393000D01*
X77343000Y-96393000D01*
X77343000Y-95033164D01*
X77087056Y-94914025D01*
X76605182Y-95113615D01*
X76132812Y-95551621D01*
X75940200Y-95971128D01*
X75940200Y-79977789D01*
X75989910Y-80055041D01*
M02*
